<mxfile host="app.diagrams.net" modified="2024-05-19T09:55:37.773Z" agent="Mozilla/5.0 (Windows NT 10.0; Win64; x64; rv:126.0) Gecko/20100101 Firefox/126.0" version="23.0.2" etag="JdOh8TfHxlPcr8Xl8GaP" type="github">
  <diagram name="Seite-1" id="04cF9DoUuZVYEKPFIHaq">
    <mxGraphModel>
      <root>
        <mxCell id="0" />
        <mxCell id="1" parent="0" />
      </root>
    </mxGraphModel>
  </diagram>
</mxfile>
